<?xml version="1.0" standalone="no"?>
<!DOCTYPE svg PUBLIC "-//W3C//DTD SVG 20010904//EN"
 "http://www.w3.org/TR/2001/REC-SVG-20010904/DTD/svg10.dtd">
<svg version="1.0" xmlns="http://www.w3.org/2000/svg"
 width="449.000000pt" height="449.000000pt" viewBox="0 0 449.000000 449.000000"
 preserveAspectRatio="xMidYMid meet">
<metadata>
Created by potrace 1.11, written by Peter Selinger 2001-2013
</metadata>
<g transform="translate(0.000000,449.000000) scale(0.100000,-0.100000)"
fill="#000000" stroke="none">
<path d="M0 2245 l0 -2245 909 0 909 0 7 41 c4 22 5 42 3 45 -2 2 -49 13 -104
24 -228 47 -440 122 -654 231 -167 86 -295 176 -423 299 -218 209 -342 432
-409 740 -20 94 -22 131 -22 365 0 351 32 572 121 849 126 392 312 695 608
992 295 296 691 550 1032 663 388 129 822 145 1215 45 369 -93 747 -298 1001
-543 95 -92 147 -161 147 -198 0 -56 -46 -45 -331 80 -269 119 -433 179 -624
227 -525 133 -981 96 -1412 -115 -695 -339 -1216 -1073 -1318 -1858 -62 -480
57 -872 355 -1167 202 -201 452 -319 648 -308 90 5 154 35 192 89 60 83 152
369 209 646 41 201 94 350 202 573 121 249 213 385 358 531 177 177 369 294
567 345 90 23 112 25 239 21 204 -8 352 -53 516 -159 300 -192 420 -548 279
-829 -89 -176 -266 -406 -449 -581 -344 -330 -889 -713 -1166 -819 -44 -17
-110 -44 -147 -60 -37 -16 -94 -34 -125 -40 -32 -6 -70 -17 -86 -26 -25 -13
-57 -64 -57 -93 0 -7 366 -10 1150 -10 l1150 0 0 2245 0 2245 -2245 0 -2245 0
0 -2245z"/>
<path d="M3280 2286 c-296 -109 -644 -470 -787 -814 -66 -159 -164 -435 -188
-530 -29 -111 -55 -396 -39 -439 23 -66 124 -95 237 -69 92 22 180 68 332 176
284 202 485 395 731 700 170 212 211 272 272 397 40 83 47 108 51 171 3 66 0
79 -29 139 -63 127 -199 234 -341 268 -77 18 -191 18 -239 1z"/>
</g>
</svg>
